<svg data-v-fde0c5aa="" xmlns="http://www.w3.org/2000/svg" viewBox="0 0 300 300" class="iconAboveSlogan"><!----><defs data-v-fde0c5aa=""><!----></defs><rect data-v-fde0c5aa="" fill="transparent" x="0" y="0" width="300px" height="300px" class="logo-background-square"></rect><defs data-v-fde0c5aa=""><!----></defs><g data-v-fde0c5aa="" id="354fc440-39ac-4df0-8cef-988c0877e710" fill="#000000" transform="matrix(2.6683086359357,0,0,2.6683086359357,17.46510666862624,148.12229638233293)"><path d="M8.96 10.65L8.96 10.65Q8.53 11.83 7.53 12.49L7.53 12.49L7.53 12.49Q6.54 13.16 5.24 13.16L5.24 13.16L5.24 13.16Q3.93 13.16 2.97 12.58L2.97 12.58L2.97 12.58Q2.00 12.00 1.48 10.93L1.48 10.93L1.48 10.93Q0.95 9.86 0.95 8.40L0.95 8.40L0.95 8.40Q0.95 6.96 1.48 5.88L1.48 5.88L1.48 5.88Q2.00 4.80 2.97 4.22L2.97 4.22L2.97 4.22Q3.93 3.64 5.21 3.64L5.21 3.64L5.21 3.64Q6.54 3.64 7.44 4.19L7.44 4.19L7.44 4.19Q8.34 4.73 8.79 5.80L8.79 5.80L7.69 6.31L7.69 6.31Q7.38 5.50 6.79 5.10L6.79 5.10L6.79 5.10Q6.20 4.69 5.29 4.69L5.29 4.69L5.29 4.69Q4.34 4.69 3.63 5.13L3.63 5.13L3.63 5.13Q2.91 5.57 2.52 6.41L2.52 6.41L2.52 6.41Q2.13 7.25 2.13 8.40L2.13 8.40L2.13 8.40Q2.13 10.14 2.96 11.12L2.96 11.12L2.96 11.12Q3.79 12.11 5.24 12.11L5.24 12.11L5.24 12.11Q6.17 12.11 6.86 11.63L6.86 11.63L6.86 11.63Q7.55 11.16 7.84 10.23L7.84 10.23L8.96 10.65ZM14.84 3.64L14.84 3.64Q16.14 3.64 17.11 4.22L17.11 4.22L17.11 4.22Q18.07 4.80 18.60 5.87L18.60 5.87L18.60 5.87Q19.12 6.94 19.12 8.40L19.12 8.40L19.12 8.40Q19.12 9.86 18.60 10.93L18.60 10.93L18.60 10.93Q18.07 12.00 17.11 12.58L17.11 12.58L17.11 12.58Q16.14 13.16 14.84 13.16L14.84 13.16L14.84 13.16Q13.54 13.16 12.57 12.58L12.57 12.58L12.57 12.58Q11.61 12.00 11.08 10.93L11.08 10.93L11.08 10.93Q10.56 9.86 10.56 8.40L10.56 8.40L10.56 8.40Q10.56 6.94 11.08 5.87L11.08 5.87L11.08 5.87Q11.61 4.80 12.57 4.22L12.57 4.22L12.57 4.22Q13.54 3.64 14.84 3.64L14.84 3.64ZM14.84 4.69L14.84 4.69Q13.40 4.69 12.57 5.68L12.57 5.68L12.57 5.68Q11.73 6.66 11.73 8.40L11.73 8.40L11.73 8.40Q11.73 10.14 12.57 11.12L12.57 11.12L12.57 11.12Q13.40 12.11 14.84 12.11L14.84 12.11L14.84 12.11Q16.28 12.11 17.12 11.12L17.12 11.12L17.12 11.12Q17.95 10.14 17.95 8.40L17.95 8.40L17.95 8.40Q17.95 6.66 17.12 5.68L17.12 5.68L17.12 5.68Q16.28 4.69 14.84 4.69L14.84 4.69ZM25.31 3.64L25.31 3.64Q26.61 3.64 27.58 4.22L27.58 4.22L27.58 4.22Q28.55 4.80 29.07 5.87L29.07 5.87L29.07 5.87Q29.60 6.94 29.60 8.40L29.60 8.40L29.60 8.40Q29.60 9.86 29.07 10.93L29.07 10.93L29.07 10.93Q28.55 12.00 27.58 12.58L27.58 12.58L27.58 12.58Q26.61 13.16 25.31 13.16L25.31 13.16L25.31 13.16Q24.01 13.16 23.04 12.58L23.04 12.58L23.04 12.58Q22.08 12.00 21.55 10.93L21.55 10.93L21.55 10.93Q21.03 9.86 21.03 8.40L21.03 8.40L21.03 8.40Q21.03 6.94 21.55 5.87L21.55 5.87L21.55 5.87Q22.08 4.80 23.04 4.22L23.04 4.22L23.04 4.22Q24.01 3.64 25.31 3.64L25.31 3.64ZM25.31 4.69L25.31 4.69Q23.87 4.69 23.04 5.68L23.04 5.68L23.04 5.68Q22.20 6.66 22.20 8.40L22.20 8.40L22.20 8.40Q22.20 10.14 23.04 11.12L23.04 11.12L23.04 11.12Q23.87 12.11 25.31 12.11L25.31 12.11L25.31 12.11Q26.75 12.11 27.59 11.12L27.59 11.12L27.59 11.12Q28.42 10.14 28.42 8.40L28.42 8.40L28.42 8.40Q28.42 6.66 27.59 5.68L27.59 5.68L27.59 5.68Q26.75 4.69 25.31 4.69L25.31 4.69ZM38.00 13.02L34.83 8.37L33.18 10.05L33.18 13.02L32.06 13.02L32.06 3.78L33.18 3.78L33.18 8.54L37.83 3.78L39.30 3.78L35.62 7.55L39.34 13.02L38.00 13.02ZM43.92 3.64L43.92 3.64Q46.40 3.64 47.49 5.60L47.49 5.60L46.52 6.38L46.52 6.38Q46.10 5.46 45.52 5.07L45.52 5.07L45.52 5.07Q44.94 4.69 43.93 4.69L43.93 4.69L43.93 4.69Q42.87 4.69 42.26 5.13L42.26 5.13L42.26 5.13Q41.65 5.57 41.65 6.26L41.65 6.26L41.65 6.26Q41.65 6.71 41.89 7.00L41.89 7.00L41.89 7.00Q42.13 7.29 42.68 7.51L42.68 7.51L42.68 7.51Q43.23 7.73 44.21 7.90L44.21 7.90L44.21 7.90Q46.05 8.20 46.81 8.82L46.81 8.82L46.81 8.82Q47.57 9.44 47.57 10.53L47.57 10.53L47.57 10.53Q47.57 11.31 47.13 11.91L47.13 11.91L47.13 11.91Q46.69 12.50 45.88 12.83L45.88 12.83L45.88 12.83Q45.07 13.16 44.00 13.16L44.00 13.16L44.00 13.16Q42.60 13.16 41.62 12.61L41.62 12.61L41.62 12.61Q40.63 12.07 40.11 11.16L40.11 11.16L41.08 10.37L41.08 10.37Q41.45 11.20 42.19 11.65L42.19 11.65L42.19 11.65Q42.92 12.11 44.03 12.11L44.03 12.11L44.03 12.11Q45.12 12.11 45.77 11.71L45.77 11.71L45.77 11.71Q46.41 11.31 46.41 10.58L46.41 10.58L46.41 10.58Q46.41 9.97 45.85 9.60L45.85 9.60L45.85 9.60Q45.29 9.24 43.86 8.99L43.86 8.99L43.86 8.99Q42.01 8.67 41.24 8.06L41.24 8.06L41.24 8.06Q40.47 7.46 40.47 6.38L40.47 6.38L40.47 6.38Q40.47 5.64 40.89 5.01L40.89 5.01L40.89 5.01Q41.31 4.38 42.10 4.01L42.10 4.01L42.10 4.01Q42.88 3.64 43.92 3.64L43.92 3.64ZM54.57 7.03L52.95 13.02L51.56 13.02L48.83 3.78L50.04 3.78L52.26 12.14L54.45 3.78L55.72 3.78L57.90 12.17L60.14 3.78L61.28 3.78L58.56 13.02L57.18 13.02L55.54 7.03L55.06 4.94L55.05 4.94L54.57 7.03ZM66.91 3.64L66.91 3.64Q68.21 3.64 69.17 4.22L69.17 4.22L69.17 4.22Q70.14 4.80 70.67 5.87L70.67 5.87L70.67 5.87Q71.19 6.94 71.19 8.40L71.19 8.40L71.19 8.40Q71.19 9.86 70.67 10.93L70.67 10.93L70.67 10.93Q70.14 12.00 69.17 12.58L69.17 12.58L69.17 12.58Q68.21 13.16 66.91 13.16L66.91 13.16L66.91 13.16Q65.60 13.16 64.64 12.58L64.64 12.58L64.64 12.58Q63.67 12.00 63.15 10.93L63.15 10.93L63.15 10.93Q62.62 9.86 62.62 8.40L62.62 8.40L62.62 8.40Q62.62 6.94 63.15 5.87L63.15 5.87L63.15 5.87Q63.67 4.80 64.64 4.22L64.64 4.22L64.64 4.22Q65.60 3.64 66.91 3.64L66.91 3.64ZM66.91 4.69L66.91 4.69Q65.46 4.69 64.63 5.68L64.63 5.68L64.63 5.68Q63.80 6.66 63.80 8.40L63.80 8.40L63.80 8.40Q63.80 10.14 64.63 11.12L64.63 11.12L64.63 11.12Q65.46 12.11 66.91 12.11L66.91 12.11L66.91 12.11Q68.35 12.11 69.18 11.12L69.18 11.12L69.18 11.12Q70.01 10.14 70.01 8.40L70.01 8.40L70.01 8.40Q70.01 6.66 69.18 5.68L69.18 5.68L69.18 5.68Q68.35 4.69 66.91 4.69L66.91 4.69ZM79.51 13.02L76.99 9.18L74.77 9.18L74.77 13.02L73.65 13.02L73.65 3.78L77.15 3.78L77.15 3.78Q78.57 3.78 79.42 4.51L79.42 4.51L79.42 4.51Q80.28 5.24 80.28 6.48L80.28 6.48L80.28 6.48Q80.28 7.46 79.73 8.13L79.73 8.13L79.73 8.13Q79.18 8.81 78.23 9.06L78.23 9.06L80.84 13.02L79.51 13.02ZM74.77 4.83L74.77 8.13L77.14 8.13L77.14 8.13Q79.10 8.13 79.10 6.48L79.10 6.48L79.10 6.48Q79.10 4.83 77.14 4.83L77.14 4.83L74.77 4.83ZM89.18 3.78L89.18 4.83L85.96 4.83L85.96 13.02L84.84 13.02L84.84 4.83L81.62 4.83L81.62 3.78L89.18 3.78ZM97.27 3.78L98.39 3.78L98.39 13.02L97.27 13.02L97.27 8.86L92.26 8.86L92.26 13.02L91.14 13.02L91.14 3.78L92.26 3.78L92.26 7.81L97.27 7.81L97.27 3.78Z"></path></g><defs data-v-fde0c5aa=""><linearGradient data-v-fde0c5aa="" gradientTransform="rotate(25)" id="8e890510-fe11-4fd1-a1e5-f7be3fe999d5" x1="0%" y1="0%" x2="100%" y2="0%"><stop data-v-fde0c5aa="" offset="0%" stop-color="#574851" stop-opacity="1"></stop><stop data-v-fde0c5aa="" offset="100%" stop-color="#95A8B1" stop-opacity="1"></stop></linearGradient></defs><g data-v-fde0c5aa="" id="c60acc04-10f9-41fe-ab61-18fd422b1f38" stroke="none" fill="url(#8e890510-fe11-4fd1-a1e5-f7be3fe999d5)" transform="matrix(0.44364052947065136,0,0,0.44364052947065136,127.843978242867,95.47088545763617)"><path d="M0 66.828v4.428C1.098 78.679 25.121 100 30.618 100h38.647c5.496 0 29.52-21.321 30.617-28.745v-4.428H0zM71.614 43.042c.178-.138 4.363-3.416 4.585-7.457a1.25 1.25 0 0 0-2.496-.138c-.159 2.894-3.585 5.59-3.619 5.617.068-.054.142-.099.221-.137l-.22.136a1.25 1.25 0 0 0 1.529 1.979zM73.628 59.742c-1.531-.398-4.713-.451-5.791 2.199a1.25 1.25 0 0 0 2.317.941c.522-1.285 2.822-.727 2.846-.721a1.25 1.25 0 1 0 .628-2.419zM97.637 54.542c-4.474 2.049-9.854 7.622-7.916 8.641 1.937 1.019 4.706-.634 7.666-2.979 2.96-2.346 3.582-7.19.25-5.662zM61.918 38.932c-1.984.083-4.756.5-5.922 3.162l-.179.4c-.428.95-.87 1.933-.446 2.971.418 1.026 1.509 1.563 2.412 1.917 2.985 1.168 6.558.515 8.132-1.489.867-1.103.915-2.818.121-4.369-.854-1.67-2.432-2.662-4.118-2.592zm2.032 5.415c-.785 1-3.138 1.535-5.257.706-.858-.336-1.015-.549-1.021-.558.013.018.026.06.026.082-.004-.166.229-.681.397-1.057l.189-.424c.333-.76 1.038-1.554 3.735-1.666 1.052-.044 1.635.932 1.789 1.232.364.706.357 1.411.142 1.685zM45.879 40.212c-2.1-.233-3.716 1.188-5.191 2.664-.718.718-1.805 1.804-1.741 3.219.043.942.568 1.821 1.605 2.685l.433.365c1.905 1.614 3.228 2.514 6.265.742 2.726-1.59 2.892-2.827 2.829-4.401a12.458 12.458 0 0 1-.014-.52c0-2.211-2.61-4.578-4.186-4.754zm1.686 4.754c0 .227.008.436.016.62.038.935.048 1.186-1.59 2.142-1.665.971-1.828.833-3.389-.49l-.448-.378c-.513-.427-.702-.74-.708-.877-.014-.313.731-1.058 1.011-1.338 1.275-1.276 2.247-2.047 3.148-1.947a.112.112 0 0 1-.02-.003c.544.119 1.98 1.457 1.98 2.271zM56.561 53.749c-2.514-1.143-8.519-3.468-9.985-.387-.312.652-.946 1.363-1.505 1.991-.972 1.09-1.891 2.119-1.584 3.334.178.704.714 1.224 1.596 1.544 2.937 1.067 6.611 2.107 8.979.66 1.943-1.187 2.591-3.593 2.939-4.885.06-.222.134-.497.168-.579.264-.623.008-1.398-.608-1.678zm-3.802 5.009c-1.567.957-5.169-.279-6.616-.802.218-.291.543-.66.793-.939.667-.748 1.421-1.596 1.887-2.563.468-.384 2.977.054 5.699 1.143-.284 1.033-.751 2.543-1.763 3.161zm40.517-12.027c-.113-2.714-.481-3.339-1.594-4.566l-.152-.169c-.955-1.061-2.239-1.506-3.617-1.254-2.114.387-3.903 2.264-4.513 3.833-.162.416-.369.821-.569 1.212-.708 1.388-1.59 3.115-.028 5.157 2.014 2.633 4.144 2.804 7.122.571.692-.52 1.203-.82 1.614-1.062 1.553-.915 1.829-1.507 1.737-3.722zM53.9 29.78c-1.739-.263-5.884-.635-6.811 1.589-.745 1.788-.512 5.102-.483 5.473a1.25 1.25 0 0 0 1.068 1.14c.56.081 5.534.75 7.9-.432 1.425-.713 2.113-2.375 1.756-4.234-.38-1.975-1.791-3.4-3.43-3.536zM12.602 38.844l.034-.005c-.534-3.589-.841-5.708-1.377-8.776C8.242 12.813 5.494-.235 3.57.003c-.01 0-.018 0-.023.003l-.015.001-.015.003-.023.004C1.574.28 3.063 15.05 5.883 32c.511 3.074.816 4.243 1.438 7.875 0 0-5.53 4.177-4.374 9.492.861 3.958 5.42 14.332 5.897 14.928-1.103-6.002-1.398-13.729.102-13.729 1-.25 3.438 8 4.875 13.063 0 0-.313-13.813.875-13.875 1.517-.08 2.989 7.23 3.477 13.313.307-.7 2.024-11.899 1.832-15.946-.26-5.433-7.403-8.277-7.403-8.277z"></path><path d="M83.373 56.922c-.315-.737-1.683-2.813-6.615-1.704.046-1.517-.463-2.974-1.506-4.083-1.335-1.42-3.201-1.956-4.87-1.399-1.011.337-2.653 1.342-3.415 4.284-1.672-.634-3.307-.628-4.577.064-1.169.638-1.877 1.803-1.895 3.115-.025 1.972 1.443 3.963 4.03 5.462a1.248 1.248 0 0 0 1.708-.454 1.248 1.248 0 0 0-.454-1.708c-2.068-1.199-2.794-2.474-2.784-3.267.007-.525.325-.808.592-.953.672-.366 1.982-.387 3.646.654.364.229.82.253 1.207.065.388-.187.651-.56.698-.987.236-2.129.978-3.553 2.034-3.904.723-.241 1.608.049 2.258.739.887.944 1.092 2.311.549 3.656a1.248 1.248 0 0 0 1.559 1.652c3.688-1.245 5.347-.692 5.537-.249.213.496-.568 2.099-3.336 3.555a1.25 1.25 0 1 0 1.164 2.212c3.594-1.889 5.39-4.603 4.47-6.75zm-46.892-.776c1.012-1.692 1.121-3.712.675-5.244-.505-1.736-1.662-2.902-3.094-3.118-.93-.14-2.246.08-3.703 1.567-.794-1.249-1.797-2.044-2.898-2.234-1.053-.182-2.059.205-2.759 1.062-1.244 1.521-1.286 4.226-.113 7.235a1.25 1.25 0 0 0 2.329-.908c-1.06-2.719-.675-4.262-.28-4.745.156-.191.283-.199.397-.18.394.068 1.234.674 1.892 2.514a1.252 1.252 0 0 0 2.221.266c1.1-1.668 2.034-2.181 2.542-2.104.429.064.848.592 1.066 1.344.363 1.246.153 3.005-1.133 4.123a1.252 1.252 0 0 0 .421 2.128c2.981 1.008 3.832 2.374 3.676 3.047-.163.704-1.434 1.311-3.469 1.048a1.25 1.25 0 1 0-.32 2.478c3.716.48 5.804-1.142 6.226-2.963.374-1.628-.459-3.767-3.676-5.316z"></path><path d="M32.489 58.288c-.138-.196-1.4-1.92-3.115-2.129-.814-.1-1.591.147-2.246.715a1.25 1.25 0 0 0 1.636 1.891c.163-.141.249-.131.306-.124.424.05 1.074.667 1.38 1.093l-.003-.004a1.251 1.251 0 0 0 2.042-1.442z"></path></g><defs data-v-fde0c5aa=""><!----></defs><g data-v-fde0c5aa="" id="76c2dcb7-4e6c-4932-b846-808b2df720ef" fill="#000000" transform="matrix(1.186131430897638,0,0,1.186131430897638,50.76824806564214,188.9197184550233)"><path d="M8.40 13.02L7.57 13.02L4.93 9.02L4.89 9.02L2.16 9.02L2.16 13.02L1.46 13.02L1.46 3.78L4.89 3.78L4.89 3.78Q6.27 3.78 7.09 4.48L7.09 4.48L7.09 4.48Q7.91 5.18 7.91 6.40L7.91 6.40L7.91 6.40Q7.91 7.41 7.32 8.07L7.32 8.07L7.32 8.07Q6.73 8.74 5.71 8.93L5.71 8.93L8.40 13.02ZM2.16 4.42L2.16 8.36L4.87 8.36L4.87 8.36Q5.99 8.36 6.59 7.85L6.59 7.85L6.59 7.85Q7.18 7.35 7.18 6.40L7.18 6.40L7.18 6.40Q7.18 5.45 6.59 4.93L6.59 4.93L6.59 4.93Q5.99 4.42 4.87 4.42L4.87 4.42L2.16 4.42ZM18.12 12.38L23.95 12.38L23.95 13.02L17.42 13.02L17.42 3.78L23.73 3.78L23.73 4.42L18.12 4.42L18.12 7.99L22.55 7.99L22.55 8.65L18.12 8.65L18.12 12.38ZM35.84 3.64L35.84 3.64Q38.44 3.64 39.33 5.68L39.33 5.68L38.72 6.17L38.72 6.17Q38.37 5.18 37.68 4.73L37.68 4.73L37.68 4.73Q36.99 4.28 35.85 4.28L35.85 4.28L35.85 4.28Q35.04 4.28 34.44 4.54L34.44 4.54L34.44 4.54Q33.84 4.79 33.52 5.22L33.52 5.22L33.52 5.22Q33.21 5.66 33.21 6.20L33.21 6.20L33.21 6.20Q33.21 6.73 33.47 7.08L33.47 7.08L33.47 7.08Q33.74 7.43 34.38 7.68L34.38 7.68L34.38 7.68Q35.01 7.92 36.13 8.12L36.13 8.12L36.13 8.12Q37.94 8.43 38.70 9.02L38.70 9.02L38.70 9.02Q39.45 9.60 39.45 10.64L39.45 10.64L39.45 10.64Q39.45 11.38 39.02 11.96L39.02 11.96L39.02 11.96Q38.58 12.53 37.79 12.84L37.79 12.84L37.79 12.84Q37.00 13.16 35.98 13.16L35.98 13.16L35.98 13.16Q34.52 13.16 33.52 12.58L33.52 12.58L33.52 12.58Q32.52 12.00 32.16 10.95L32.16 10.95L32.77 10.47L32.77 10.47Q33.05 11.47 33.90 11.99L33.90 11.99L33.90 11.99Q34.75 12.52 35.99 12.52L35.99 12.52L35.99 12.52Q37.20 12.52 37.96 12.03L37.96 12.03L37.96 12.03Q38.72 11.54 38.72 10.68L38.72 10.68L38.72 10.68Q38.72 9.94 38.10 9.51L38.10 9.51L38.10 9.51Q37.48 9.07 35.94 8.81L35.94 8.81L35.94 8.81Q34.64 8.58 33.88 8.26L33.88 8.26L33.88 8.26Q33.12 7.94 32.80 7.46L32.80 7.46L32.80 7.46Q32.47 6.99 32.47 6.27L32.47 6.27L32.47 6.27Q32.47 5.56 32.88 4.96L32.88 4.96L32.88 4.96Q33.29 4.35 34.05 4.00L34.05 4.00L34.05 4.00Q34.82 3.64 35.84 3.64L35.84 3.64ZM54.53 3.78L54.53 4.42L51.16 4.42L51.16 13.02L50.46 13.02L50.46 4.42L47.08 4.42L47.08 3.78L54.53 3.78ZM68.25 13.02L67.09 10.12L62.66 10.12L61.52 13.02L60.77 13.02L64.47 3.78L65.30 3.78L68.99 13.02L68.25 13.02ZM62.93 9.48L66.84 9.48L65.23 5.45L64.89 4.47L64.88 4.47L64.54 5.42L62.93 9.48ZM84.48 3.78L84.48 9.65L84.48 9.65Q84.48 11.35 83.55 12.26L83.55 12.26L83.55 12.26Q82.63 13.16 80.92 13.16L80.92 13.16L80.92 13.16Q79.21 13.16 78.28 12.26L78.28 12.26L78.28 12.26Q77.35 11.35 77.35 9.65L77.35 9.65L77.35 3.78L78.05 3.78L78.05 9.51L78.05 9.51Q78.05 10.99 78.78 11.75L78.78 11.75L78.78 11.75Q79.51 12.52 80.92 12.52L80.92 12.52L80.92 12.52Q82.32 12.52 83.05 11.75L83.05 11.75L83.05 11.75Q83.78 10.99 83.78 9.51L83.78 9.51L83.78 3.78L84.48 3.78ZM101.22 13.02L100.39 13.02L97.75 9.02L97.71 9.02L94.98 9.02L94.98 13.02L94.28 13.02L94.28 3.78L97.71 3.78L97.71 3.78Q99.09 3.78 99.91 4.48L99.91 4.48L99.91 4.48Q100.73 5.18 100.73 6.40L100.73 6.40L100.73 6.40Q100.73 7.41 100.14 8.07L100.14 8.07L100.14 8.07Q99.55 8.74 98.53 8.93L98.53 8.93L101.22 13.02ZM94.98 4.42L94.98 8.36L97.69 8.36L97.69 8.36Q98.81 8.36 99.41 7.85L99.41 7.85L99.41 7.85Q100.00 7.35 100.00 6.40L100.00 6.40L100.00 6.40Q100.00 5.45 99.41 4.93L99.41 4.93L99.41 4.93Q98.81 4.42 97.69 4.42L97.69 4.42L94.98 4.42ZM116.52 13.02L115.36 10.12L110.94 10.12L109.79 13.02L109.05 13.02L112.74 3.78L113.57 3.78L117.26 13.02L116.52 13.02ZM111.20 9.48L115.11 9.48L113.50 5.45L113.16 4.47L113.15 4.47L112.81 5.42L111.20 9.48ZM132.75 3.78L132.75 9.65L132.75 9.65Q132.75 11.35 131.82 12.26L131.82 12.26L131.82 12.26Q130.90 13.16 129.19 13.16L129.19 13.16L129.19 13.16Q127.48 13.16 126.55 12.26L126.55 12.26L126.55 12.26Q125.62 11.35 125.62 9.65L125.62 9.65L125.62 3.78L126.32 3.78L126.32 9.51L126.32 9.51Q126.32 10.99 127.05 11.75L127.05 11.75L127.05 11.75Q127.78 12.52 129.19 12.52L129.19 12.52L129.19 12.52Q130.59 12.52 131.32 11.75L131.32 11.75L131.32 11.75Q132.05 10.99 132.05 9.51L132.05 9.51L132.05 3.78L132.75 3.78ZM149.65 3.78L149.65 13.02L148.78 13.02L143.88 5.77L143.19 4.54L143.18 4.54L143.22 5.70L143.22 13.02L142.55 13.02L142.55 3.78L143.43 3.78L148.32 11.02L149.02 12.26L148.99 11.10L148.99 3.78L149.65 3.78ZM165.86 3.78L165.86 4.42L162.48 4.42L162.48 13.02L161.78 13.02L161.78 4.42L158.41 4.42L158.41 3.78L165.86 3.78Z"></path></g></svg>