<svg data-v-423bf9ae="" xmlns="http://www.w3.org/2000/svg" viewBox="0 0 1228.235388872243 193" class="fontAboveSlogan"><!----><!----><!----><g data-v-423bf9ae="" id="a078be29-66d8-432d-82ba-6c4a9e18ede1" fill="#000000" transform="matrix(12.605042673421726,0,0,12.605042673421726,-11.142455011665561,-45.24235511816103)"><path d="M8.96 10.65L8.96 10.65Q8.53 11.83 7.53 12.49L7.53 12.49L7.53 12.49Q6.54 13.16 5.24 13.16L5.24 13.16L5.24 13.16Q3.93 13.16 2.97 12.58L2.97 12.58L2.97 12.58Q2.00 12.00 1.48 10.93L1.48 10.93L1.48 10.93Q0.95 9.86 0.95 8.40L0.95 8.40L0.95 8.40Q0.95 6.96 1.48 5.88L1.48 5.88L1.48 5.88Q2.00 4.80 2.97 4.22L2.97 4.22L2.97 4.22Q3.93 3.64 5.21 3.64L5.21 3.64L5.21 3.64Q6.54 3.64 7.44 4.19L7.44 4.19L7.44 4.19Q8.34 4.73 8.79 5.80L8.79 5.80L7.69 6.31L7.69 6.31Q7.38 5.50 6.79 5.10L6.79 5.10L6.79 5.10Q6.20 4.69 5.29 4.69L5.29 4.69L5.29 4.69Q4.34 4.69 3.63 5.13L3.63 5.13L3.63 5.13Q2.91 5.57 2.52 6.41L2.52 6.41L2.52 6.41Q2.13 7.25 2.13 8.40L2.13 8.40L2.13 8.40Q2.13 10.14 2.96 11.12L2.96 11.12L2.96 11.12Q3.79 12.11 5.24 12.11L5.24 12.11L5.24 12.11Q6.17 12.11 6.86 11.63L6.86 11.63L6.86 11.63Q7.55 11.16 7.84 10.23L7.84 10.23L8.96 10.65ZM14.84 3.64L14.84 3.64Q16.14 3.64 17.11 4.22L17.11 4.22L17.11 4.22Q18.07 4.80 18.60 5.87L18.60 5.87L18.60 5.87Q19.12 6.94 19.12 8.40L19.12 8.40L19.12 8.40Q19.12 9.86 18.60 10.93L18.60 10.93L18.60 10.93Q18.07 12.00 17.11 12.58L17.11 12.58L17.11 12.58Q16.14 13.16 14.84 13.16L14.84 13.16L14.84 13.16Q13.54 13.16 12.57 12.58L12.57 12.58L12.57 12.58Q11.61 12.00 11.08 10.93L11.08 10.93L11.08 10.93Q10.56 9.86 10.56 8.40L10.56 8.40L10.56 8.40Q10.56 6.94 11.08 5.87L11.08 5.87L11.08 5.87Q11.61 4.80 12.57 4.22L12.57 4.22L12.57 4.22Q13.54 3.64 14.84 3.64L14.84 3.64ZM14.84 4.69L14.84 4.69Q13.40 4.69 12.57 5.68L12.57 5.68L12.57 5.68Q11.73 6.66 11.73 8.40L11.73 8.40L11.73 8.40Q11.73 10.14 12.57 11.12L12.57 11.12L12.57 11.12Q13.40 12.11 14.84 12.11L14.84 12.11L14.84 12.11Q16.28 12.11 17.12 11.12L17.12 11.12L17.12 11.12Q17.95 10.14 17.95 8.40L17.95 8.40L17.95 8.40Q17.95 6.66 17.12 5.68L17.12 5.68L17.12 5.68Q16.28 4.69 14.84 4.69L14.84 4.69ZM25.31 3.64L25.31 3.64Q26.61 3.64 27.58 4.22L27.58 4.22L27.58 4.22Q28.55 4.80 29.07 5.87L29.07 5.87L29.07 5.87Q29.60 6.94 29.60 8.40L29.60 8.40L29.60 8.40Q29.60 9.86 29.07 10.93L29.07 10.93L29.07 10.93Q28.55 12.00 27.58 12.58L27.58 12.58L27.58 12.58Q26.61 13.16 25.31 13.16L25.31 13.16L25.31 13.16Q24.01 13.16 23.04 12.58L23.04 12.58L23.04 12.58Q22.08 12.00 21.55 10.93L21.55 10.93L21.55 10.93Q21.03 9.86 21.03 8.40L21.03 8.40L21.03 8.40Q21.03 6.94 21.55 5.87L21.55 5.87L21.55 5.87Q22.08 4.80 23.04 4.22L23.04 4.22L23.04 4.22Q24.01 3.64 25.31 3.64L25.31 3.64ZM25.31 4.69L25.31 4.69Q23.87 4.69 23.04 5.68L23.04 5.68L23.04 5.68Q22.20 6.66 22.20 8.40L22.20 8.40L22.20 8.40Q22.20 10.14 23.04 11.12L23.04 11.12L23.04 11.12Q23.87 12.11 25.31 12.11L25.31 12.11L25.31 12.11Q26.75 12.11 27.59 11.12L27.59 11.12L27.59 11.12Q28.42 10.14 28.42 8.40L28.42 8.40L28.42 8.40Q28.42 6.66 27.59 5.68L27.59 5.68L27.59 5.68Q26.75 4.69 25.31 4.69L25.31 4.69ZM38.00 13.02L34.83 8.37L33.18 10.05L33.18 13.02L32.06 13.02L32.06 3.78L33.18 3.78L33.18 8.54L37.83 3.78L39.30 3.78L35.62 7.55L39.34 13.02L38.00 13.02ZM43.92 3.64L43.92 3.64Q46.40 3.64 47.49 5.60L47.49 5.60L46.52 6.38L46.52 6.38Q46.10 5.46 45.52 5.07L45.52 5.07L45.52 5.07Q44.94 4.69 43.93 4.69L43.93 4.69L43.93 4.69Q42.87 4.69 42.26 5.13L42.26 5.13L42.26 5.13Q41.65 5.57 41.65 6.26L41.65 6.26L41.65 6.26Q41.65 6.71 41.89 7.00L41.89 7.00L41.89 7.00Q42.13 7.29 42.68 7.51L42.68 7.51L42.68 7.51Q43.23 7.73 44.21 7.90L44.21 7.90L44.21 7.90Q46.05 8.20 46.81 8.82L46.81 8.82L46.81 8.82Q47.57 9.44 47.57 10.53L47.57 10.53L47.57 10.53Q47.57 11.31 47.13 11.91L47.13 11.91L47.13 11.91Q46.69 12.50 45.88 12.83L45.88 12.83L45.88 12.83Q45.07 13.16 44.00 13.16L44.00 13.16L44.00 13.16Q42.60 13.16 41.62 12.61L41.62 12.61L41.62 12.61Q40.63 12.07 40.11 11.16L40.11 11.16L41.08 10.37L41.08 10.37Q41.45 11.20 42.19 11.65L42.19 11.65L42.19 11.65Q42.92 12.11 44.03 12.11L44.03 12.11L44.03 12.11Q45.12 12.11 45.77 11.71L45.77 11.71L45.77 11.71Q46.41 11.31 46.41 10.58L46.41 10.58L46.41 10.58Q46.41 9.97 45.85 9.60L45.85 9.60L45.85 9.60Q45.29 9.24 43.86 8.99L43.86 8.99L43.86 8.99Q42.01 8.67 41.24 8.06L41.24 8.06L41.24 8.06Q40.47 7.46 40.47 6.38L40.47 6.38L40.47 6.38Q40.47 5.64 40.89 5.01L40.89 5.01L40.89 5.01Q41.31 4.38 42.10 4.01L42.10 4.01L42.10 4.01Q42.88 3.64 43.92 3.64L43.92 3.64ZM54.57 7.03L52.95 13.02L51.56 13.02L48.83 3.78L50.04 3.78L52.26 12.14L54.45 3.78L55.72 3.78L57.90 12.17L60.14 3.78L61.28 3.78L58.56 13.02L57.18 13.02L55.54 7.03L55.06 4.94L55.05 4.94L54.57 7.03ZM66.91 3.64L66.91 3.64Q68.21 3.64 69.17 4.22L69.17 4.22L69.17 4.22Q70.14 4.80 70.67 5.87L70.67 5.87L70.67 5.87Q71.19 6.94 71.19 8.40L71.19 8.40L71.19 8.40Q71.19 9.86 70.67 10.93L70.67 10.93L70.67 10.93Q70.14 12.00 69.17 12.58L69.17 12.58L69.17 12.58Q68.21 13.16 66.91 13.16L66.91 13.16L66.91 13.16Q65.60 13.16 64.64 12.58L64.64 12.58L64.64 12.58Q63.67 12.00 63.15 10.93L63.15 10.93L63.15 10.93Q62.62 9.86 62.62 8.40L62.62 8.40L62.62 8.40Q62.62 6.94 63.15 5.87L63.15 5.87L63.15 5.87Q63.67 4.80 64.64 4.22L64.64 4.22L64.64 4.22Q65.60 3.64 66.91 3.64L66.91 3.64ZM66.91 4.69L66.91 4.69Q65.46 4.69 64.63 5.68L64.63 5.68L64.63 5.68Q63.80 6.66 63.80 8.40L63.80 8.40L63.80 8.40Q63.80 10.14 64.63 11.12L64.63 11.12L64.63 11.12Q65.46 12.11 66.91 12.11L66.91 12.11L66.91 12.11Q68.35 12.11 69.18 11.12L69.18 11.12L69.18 11.12Q70.01 10.14 70.01 8.40L70.01 8.40L70.01 8.40Q70.01 6.66 69.18 5.68L69.18 5.68L69.18 5.68Q68.35 4.69 66.91 4.69L66.91 4.69ZM79.51 13.02L76.99 9.18L74.77 9.18L74.77 13.02L73.65 13.02L73.65 3.78L77.15 3.78L77.15 3.78Q78.57 3.78 79.42 4.51L79.42 4.51L79.42 4.51Q80.28 5.24 80.28 6.48L80.28 6.48L80.28 6.48Q80.28 7.46 79.73 8.13L79.73 8.13L79.73 8.13Q79.18 8.81 78.23 9.06L78.23 9.06L80.84 13.02L79.51 13.02ZM74.77 4.83L74.77 8.13L77.14 8.13L77.14 8.13Q79.10 8.13 79.10 6.48L79.10 6.48L79.10 6.48Q79.10 4.83 77.14 4.83L77.14 4.83L74.77 4.83ZM89.18 3.78L89.18 4.83L85.96 4.83L85.96 13.02L84.84 13.02L84.84 4.83L81.62 4.83L81.62 3.78L89.18 3.78ZM97.27 3.78L98.39 3.78L98.39 13.02L97.27 13.02L97.27 8.86L92.26 8.86L92.26 13.02L91.14 13.02L91.14 3.78L92.26 3.78L92.26 7.81L97.27 7.81L97.27 3.78Z"></path></g><!----><!----><g data-v-423bf9ae="" id="b5f0b79b-8cf3-4926-95ed-1040d84b2607" fill="#000000" transform="matrix(6.302521336710863,0,0,6.302521336710863,86.84878358722369,110.05882763367615)"><path d="M8.40 13.02L7.57 13.02L4.93 9.02L4.89 9.02L2.16 9.02L2.16 13.02L1.46 13.02L1.46 3.78L4.89 3.78L4.89 3.78Q6.27 3.78 7.09 4.48L7.09 4.48L7.09 4.48Q7.91 5.18 7.91 6.40L7.91 6.40L7.91 6.40Q7.91 7.41 7.32 8.07L7.32 8.07L7.32 8.07Q6.73 8.74 5.71 8.93L5.71 8.93L8.40 13.02ZM2.16 4.42L2.16 8.36L4.87 8.36L4.87 8.36Q5.99 8.36 6.59 7.85L6.59 7.85L6.59 7.85Q7.18 7.35 7.18 6.40L7.18 6.40L7.18 6.40Q7.18 5.45 6.59 4.93L6.59 4.93L6.59 4.93Q5.99 4.42 4.87 4.42L4.87 4.42L2.16 4.42ZM18.12 12.38L23.95 12.38L23.95 13.02L17.42 13.02L17.42 3.78L23.73 3.78L23.73 4.42L18.12 4.42L18.12 7.99L22.55 7.99L22.55 8.65L18.12 8.65L18.12 12.38ZM35.84 3.64L35.84 3.64Q38.44 3.64 39.33 5.68L39.33 5.68L38.72 6.17L38.72 6.17Q38.37 5.18 37.68 4.73L37.68 4.73L37.68 4.73Q36.99 4.28 35.85 4.28L35.85 4.28L35.85 4.28Q35.04 4.28 34.44 4.54L34.44 4.54L34.44 4.54Q33.84 4.79 33.52 5.22L33.52 5.22L33.52 5.22Q33.21 5.66 33.21 6.20L33.21 6.20L33.21 6.20Q33.21 6.73 33.47 7.08L33.47 7.08L33.47 7.08Q33.74 7.43 34.38 7.68L34.38 7.68L34.38 7.68Q35.01 7.92 36.13 8.12L36.13 8.12L36.13 8.12Q37.94 8.43 38.70 9.02L38.70 9.02L38.70 9.02Q39.45 9.60 39.45 10.64L39.45 10.64L39.45 10.64Q39.45 11.38 39.02 11.96L39.02 11.96L39.02 11.96Q38.58 12.53 37.79 12.84L37.79 12.84L37.79 12.84Q37.00 13.16 35.98 13.16L35.98 13.16L35.98 13.16Q34.52 13.16 33.52 12.58L33.52 12.58L33.52 12.58Q32.52 12.00 32.16 10.95L32.16 10.95L32.77 10.47L32.77 10.47Q33.05 11.47 33.90 11.99L33.90 11.99L33.90 11.99Q34.75 12.52 35.99 12.52L35.99 12.52L35.99 12.52Q37.20 12.52 37.96 12.03L37.96 12.03L37.96 12.03Q38.72 11.54 38.72 10.68L38.72 10.68L38.72 10.68Q38.72 9.94 38.10 9.51L38.10 9.51L38.10 9.51Q37.48 9.07 35.94 8.81L35.94 8.81L35.94 8.81Q34.64 8.58 33.88 8.26L33.88 8.26L33.88 8.26Q33.12 7.94 32.80 7.46L32.80 7.46L32.80 7.46Q32.47 6.99 32.47 6.27L32.47 6.27L32.47 6.27Q32.47 5.56 32.88 4.96L32.88 4.96L32.88 4.96Q33.29 4.35 34.05 4.00L34.05 4.00L34.05 4.00Q34.82 3.64 35.84 3.64L35.84 3.64ZM54.53 3.78L54.53 4.42L51.16 4.42L51.16 13.02L50.46 13.02L50.46 4.42L47.08 4.42L47.08 3.78L54.53 3.78ZM68.25 13.02L67.09 10.12L62.66 10.12L61.52 13.02L60.77 13.02L64.47 3.78L65.30 3.78L68.99 13.02L68.25 13.02ZM62.93 9.48L66.84 9.48L65.23 5.45L64.89 4.47L64.88 4.47L64.54 5.42L62.93 9.48ZM84.48 3.78L84.48 9.65L84.48 9.65Q84.48 11.35 83.55 12.26L83.55 12.26L83.55 12.26Q82.63 13.16 80.92 13.16L80.92 13.16L80.92 13.16Q79.21 13.16 78.28 12.26L78.28 12.26L78.28 12.26Q77.35 11.35 77.35 9.65L77.35 9.65L77.35 3.78L78.05 3.78L78.05 9.51L78.05 9.51Q78.05 10.99 78.78 11.75L78.78 11.75L78.78 11.75Q79.51 12.52 80.92 12.52L80.92 12.52L80.92 12.52Q82.32 12.52 83.05 11.75L83.05 11.75L83.05 11.75Q83.78 10.99 83.78 9.51L83.78 9.51L83.78 3.78L84.48 3.78ZM101.22 13.02L100.39 13.02L97.75 9.02L97.71 9.02L94.98 9.02L94.98 13.02L94.28 13.02L94.28 3.78L97.71 3.78L97.71 3.78Q99.09 3.78 99.91 4.48L99.91 4.48L99.91 4.48Q100.73 5.18 100.73 6.40L100.73 6.40L100.73 6.40Q100.73 7.41 100.14 8.07L100.14 8.07L100.14 8.07Q99.55 8.74 98.53 8.93L98.53 8.93L101.22 13.02ZM94.98 4.42L94.98 8.36L97.69 8.36L97.69 8.36Q98.81 8.36 99.41 7.85L99.41 7.85L99.41 7.85Q100.00 7.35 100.00 6.40L100.00 6.40L100.00 6.40Q100.00 5.45 99.41 4.93L99.41 4.93L99.41 4.93Q98.81 4.42 97.69 4.42L97.69 4.42L94.98 4.42ZM116.52 13.02L115.36 10.12L110.94 10.12L109.79 13.02L109.05 13.02L112.74 3.78L113.57 3.78L117.26 13.02L116.52 13.02ZM111.20 9.48L115.11 9.48L113.50 5.45L113.16 4.47L113.15 4.47L112.81 5.42L111.20 9.48ZM132.75 3.78L132.75 9.65L132.75 9.65Q132.75 11.35 131.82 12.26L131.82 12.26L131.82 12.26Q130.90 13.16 129.19 13.16L129.19 13.16L129.19 13.16Q127.48 13.16 126.55 12.26L126.55 12.26L126.55 12.26Q125.62 11.35 125.62 9.65L125.62 9.65L125.62 3.78L126.32 3.78L126.32 9.51L126.32 9.51Q126.32 10.99 127.05 11.75L127.05 11.75L127.05 11.75Q127.78 12.52 129.19 12.52L129.19 12.52L129.19 12.52Q130.59 12.52 131.32 11.75L131.32 11.75L131.32 11.75Q132.05 10.99 132.05 9.51L132.05 9.51L132.05 3.78L132.75 3.78ZM149.65 3.78L149.65 13.02L148.78 13.02L143.88 5.77L143.19 4.54L143.18 4.54L143.22 5.70L143.22 13.02L142.55 13.02L142.55 3.78L143.43 3.78L148.32 11.02L149.02 12.26L148.99 11.10L148.99 3.78L149.65 3.78ZM165.86 3.78L165.86 4.42L162.48 4.42L162.48 13.02L161.78 13.02L161.78 4.42L158.41 4.42L158.41 3.78L165.86 3.78Z"></path></g></svg>